<svg viewBox="0 0 1024 500" xmlns="http://www.w3.org/2000/svg">
  <defs>
    <linearGradient id="bg" x1="0" y1="0" x2="1024" y2="500" gradientUnits="userSpaceOnUse">
      <stop offset="0" stop-color="#0E3A63"/>
      <stop offset=".5" stop-color="#1B6FB3"/>
      <stop offset="1" stop-color="#38A9D4"/>
    </linearGradient>
    <linearGradient id="tg" gradientUnits="userSpaceOnUse" x1="81" y1="-47" x2="431" y2="559">
      <stop offset="0" stop-color="#0E3A63"/>
      <stop offset=".55" stop-color="#1B6FB3"/>
      <stop offset="1" stop-color="#38A9D4"/>
    </linearGradient>
    <clipPath id="tc">
      <path d="M118,0 L394,0 A118,118 0 0 1 512,118 L512,394 A118,118 0 0 1 394,512 L118,512 A118,118 0 0 1 0,394 L0,118 A118,118 0 0 1 118,0 Z"/>
    </clipPath>
    <filter id="glow">
      <feGaussianBlur stdDeviation="12" result="blur"/>
      <feMerge><feMergeNode in="blur"/><feMergeNode in="SourceGraphic"/></feMerge>
    </filter>
    <filter id="shadow">
      <feDropShadow dx="0" dy="4" stdDeviation="16" flood-color="#0E3A63" flood-opacity=".35"/>
    </filter>
  </defs>

  <!-- Background -->
  <rect width="1024" height="500" fill="url(#bg)"/>

  <!-- Background lake waves -->
  <path d="M0,260 C200,200 400,320 600,280 C800,240 900,180 1024,260 L1024,500 L0,500 Z" fill="#fff" fill-opacity=".05"/>
  <path d="M0,320 C250,280 450,360 650,310 C850,260 950,300 1024,310 L1024,500 L0,500 Z" fill="#fff" fill-opacity=".04"/>

  <!-- Logo icon centered left -->
  <g transform="translate(230, 154) scale(.375)">
    <g clip-path="url(#tc)">
      <rect width="512" height="512" fill="url(#tg)"/>
      <g transform="translate(256 256) scale(1.5) translate(-256 -256)">
        <path d="M-154,517 a410,230 0 1,0 820,0 a410,230 0 1,0 -820,0 Z" fill="#fff" fill-opacity=".08"/>
        <path d="M-154,579 a410,230 0 1,0 820,0 a410,230 0 1,0 -820,0 Z" fill="#fff" fill-opacity=".07"/>
      </g>
      <g transform="translate(256 256) scale(1.08) translate(-256 -256)">
        <path d="M358.65 375.95L358.65 233.49Q358.65 212.99 354.45 200.06Q350.25 187.12 340.84 180.74Q331.43 174.35 315.98 174.35Q308.25 174.35 301.36 176.2Q294.47 178.05 289.1 180.9Q283.72 183.76 280.02 187.12L280.02 295.65L230.3 295.65L230.3 175.02Q228.28 175.02 226.43 175.02Q224.58 175.02 222.57 175.02Q195.35 175.02 179.9 184.6Q164.44 194.18 158.06 211.98Q151.67 229.79 151.67 255.33L151.67 295.65L101.94 295.65L101.94 253.98Q101.94 209.63 116.39 183.76Q130.84 157.89 157.72 146.97Q184.6 136.05 221.56 136.05L280.02 136.05L280.02 151.5Q286.41 146.46 298.84 141.26Q311.27 136.05 330.76 136.05Q351.59 136.05 366.21 141.76Q380.82 147.47 390.23 158.56Q399.64 169.65 404.01 185.27Q408.38 200.9 408.38 221.06L408.38 375.95Z" fill="#fff"/>
      </g>
    </g>
  </g>

  <!-- Text: Addiyon Keyboard -->
  <text x="460" y="230" font-family="'Playpen Sans','Inter',system-ui,sans-serif" font-weight="700" font-size="48" fill="#fff">Addiyon Keyboard</text>
  <text x="460" y="285" font-family="'Inter',system-ui,sans-serif" font-weight="500" font-size="22" fill="#A0D4F0">The easiest way to type Amharic</text>
</svg>
