<svg xmlns="http://www.w3.org/2000/svg" width="512" height="512" viewBox="0 0 512 512">
  <defs>
    <clipPath id="squircle">
      <path d="M118,0 L394,0 A118,118 0 0 1 512,118 L512,394 A118,118 0 0 1 394,512 L118,512 A118,118 0 0 1 0,394 L0,118 A118,118 0 0 1 118,0 Z"/>
    </clipPath>
  </defs>
  <g clip-path="url(#squircle)">
    <g transform="matrix(1.5, 0, 0, 1.5, -128, -128)">
      <rect x="0" y="0" width="512" height="512" fill="#EE4D2D"/>
      <path d="M166.57 378.09L229.84 235.48Q199.4 231.72 185.38 215.64Q171.36 199.57 171.36 171.53L171.36 133.91L219.92 133.91L219.92 162.29Q219.92 182.47 228.64 189.99Q237.36 197.52 257.2 197.52L296.87 197.52L217.18 378.09ZM295.16 378.09Q294.82 347.31 290.03 328.5Q285.24 309.69 276.01 299.26Q266.77 288.83 253.09 283.02L269.17 244.71Q293.45 253.26 310.38 269Q327.31 284.73 336.37 311.06Q345.43 337.4 346.12 378.09Z" fill="#FFF6F0"/>
      <rect x="0" y="194" width="512" height="27" fill="#EE4D2D"/>
      <rect x="0" y="322" width="512" height="27" fill="#EE4D2D"/>
    </g>
  </g>
</svg>
