<?xml version="1.0" encoding="UTF-8"?>
<svg xmlns="http://www.w3.org/2000/svg" viewBox="140 159 812 833" role="img" aria-label="Addiyon Keyboard">
<path d="M183.58 640.28C187.79 639.52 192.24 639.96 196.5 639.94C204.5 639.93 212.5 639.84 220.5 639.88C243.5 640.01 266.5 639.91 289.5 639.88C305.33 639.86 319.58 639.49 329.84 653.68C336.57 663 336.1 673.5 336.08 684.5C336.05 699.17 336.07 713.83 336.06 728.5C336.04 738.83 336.05 749.17 336 759.5C335.93 772.33 336.06 784.08 325.94 793.44C314.35 804.15 299.15 802.25 284.5 802.27C257.83 802.31 231.17 802.33 204.5 802.3C185.09 802.27 168.26 803.22 159.22 782.3C154.45 771.28 156.98 757.21 156.85 745.5C156.77 737.5 156.9 729.5 156.84 721.5C156.78 714.16 156.8 706.84 156.82 699.5C156.84 688.59 155.33 676.44 157.34 665.69C159.7 653.07 171.11 642.52 183.58 640.28ZM385.58 640.32C396.86 638.58 409.11 639.91 420.5 639.92C443.83 639.95 467.17 639.9 490.5 639.92C506.28 639.93 521.49 639.34 531.68 653.78C538.82 663.9 537.98 676.72 537.77 688.5C537.52 702.16 537.91 715.84 537.79 729.5C537.72 738.17 537.78 746.83 537.79 755.5C537.82 770.38 538.15 783.98 526.06 794.55C514.51 804.64 497.75 802.51 483.5 802.3C457.17 801.91 430.83 802.32 404.5 802.34C385.03 802.36 367.75 802.23 359.49 781.04C355.07 769.69 357.4 755.45 357.33 743.5C357.28 735.5 357.32 727.5 357.32 719.5C357.32 710.17 357.45 700.83 357.42 691.5C357.39 683.04 356.49 673.9 358.22 665.56C360.9 652.62 372.69 642.3 385.58 640.32ZM585.71 640.38C596.72 638.45 610.22 639.94 621.5 639.93C645.17 639.91 668.83 639.88 692.5 639.89C707.94 639.89 722.81 639.67 732.47 654.03C739.16 663.97 738.59 675 738.61 686.5C738.63 700.5 738.74 714.5 738.63 728.5C738.56 737.83 738.68 747.17 738.63 756.5C738.54 771.35 739.18 783.86 727.07 794.57C715.85 804.5 699.34 802.43 685.5 802.21C657.85 801.77 630.16 802.27 602.5 802.23C596.93 802.22 591.05 802.58 585.53 801.83C575.43 800.46 565.36 792.44 561.5 783.01C556.79 771.5 558.83 757.66 558.87 745.5C558.9 737.5 558.85 729.5 558.86 721.5C558.87 714.83 558.79 708.17 558.85 701.5C559.04 680.17 554.27 657.75 575.07 644.57C578.29 642.53 581.94 641.04 585.71 640.38ZM786.7 640.36C797.34 638.46 810.56 639.95 821.5 639.91C845.17 639.83 868.83 639.91 892.5 639.96C908.74 639.99 923.13 639.07 933.43 654.07C939.71 663.22 939.13 672.83 939.19 683.5C939.28 698.17 939.1 712.83 939.18 727.5C939.23 737.17 939.13 746.83 939.17 756.5C939.23 771.06 940.08 783.32 928.47 793.99C916.89 804.63 901.03 802.24 886.5 802.14C859.5 801.95 832.5 802.46 805.5 802.22C799.25 802.16 792.73 802.82 786.53 801.84C775.94 800.16 766.27 792.24 762.15 782.37C757.52 771.26 759.82 757.28 759.75 745.5C759.7 737.5 759.7 729.5 759.71 721.5C759.72 708.17 759.49 694.83 759.71 681.5C759.82 674.99 759.15 668.03 761.37 661.78C765.24 650.96 775.41 642.37 786.7 640.36ZM183.58 815.5C189.74 814.48 196.3 815.26 202.5 815.24C215.83 815.23 229.17 815.26 242.5 815.27C281.5 815.28 320.5 815.32 359.5 815.23C480.16 814.96 600.84 814.49 721.5 815.22C768.5 815.51 815.5 814.98 862.5 815.21C874.5 815.27 886.5 815.21 898.5 815.22C906.52 815.23 914.79 814.59 922.14 819.2C939.72 830.22 939.15 848.07 939.22 869.01C939.28 883.55 939.25 898.09 939.18 912.62C939.12 924.17 940.15 936.28 938.87 947.75C937.26 962.11 926.7 974.84 915.27 978.22C908.54 980.21 901.37 979.26 894.5 979.33C850.84 979.84 807.16 979.43 763.5 979.28C631.17 978.83 498.84 979.8 366.5 979.26C323.17 979.09 279.82 979.96 236.5 979.2C224.17 978.99 211.83 979.48 199.5 979.42C193.24 979.39 186.93 979.94 180.78 978.17C170.54 975.22 161.63 965.79 158.22 953.61C155.19 942.82 156.62 923.2 156.71 911.41C156.77 903.33 156.76 895.26 156.8 887.18C156.91 862.93 152.23 832.1 173.86 819.2C176.87 817.4 180.25 816.05 183.58 815.5Z" fill="#db6f52" fill-rule="evenodd" stroke="#db6f52" stroke-width="0.25" stroke-linejoin="round"/>
<path d="M410.5 172.46C440.83 171.83 471.26 172.32 501.59 172.5C550.56 172.8 599.54 172.01 648.5 172.58C664.13 172.76 681.05 171.06 696.49 173.19C721.82 176.69 744.77 192.94 757.42 215.09C770.82 238.57 768.9 264.4 768.94 290.5C769 329.5 768.81 368.5 768.86 407.5C768.91 434.83 769.15 462.17 768.88 489.5C768.75 502.44 769.86 515.66 767.91 528.5C765.24 546.03 755.12 562.76 741.73 574.2C718.5 594.05 697.73 594.92 668.5 594.78C656.5 594.72 644.5 594.82 632.5 594.81C625.17 594.81 617.83 594.91 610.5 594.76C606.91 594.69 602.03 593.91 598.59 595.06C595.76 596.01 590.2 602.98 587.85 605.34C579.89 613.38 571.5 621.01 563.57 629.08C559.21 633.51 554.39 640.69 547.5 640.1C542.5 639.67 539.27 634.79 535.79 631.68C526.16 623.07 517.06 613.71 507.84 604.66C504.65 601.54 500 595.31 495.5 594.73C487.83 593.73 479.25 594.75 471.5 594.79C458.17 594.85 444.83 594.71 431.5 594.79C401.76 594.97 381.71 595.31 357.12 576.4C351.37 571.98 346.22 566.48 341.86 560.68C336.69 553.81 332.77 545.54 330.26 537.32C326.5 524.99 327.21 512.25 327.12 499.5C327 480.17 327.05 460.83 327.04 441.5C327.03 421.83 327.09 402.17 327.14 382.5C327.21 350.83 326.92 319.17 327.06 287.5C327.13 270 325.55 251.72 330.28 234.68C340.27 198.75 373.35 173.24 410.5 172.46ZM534.5 250.84C507.66 250.84 480.83 250.84 453.99 250.84C458.44 260.73 463.6 269.69 465.88 280.52C467.99 290.57 466.94 301.3 466.92 311.5C466.91 317.72 465.07 335.65 470.04 339.48C473.04 341.8 477.45 341.44 481.03 341.5C488.18 341.63 501.87 340.21 507.87 342.5C481.84 383.55 458.7 425.73 438.43 469.93C433.31 481.1 428.11 492.24 422.82 503.33C420.18 508.87 415.6 515.45 415.35 521.5C432.64 522.43 450.18 521.69 467.5 521.71C474.6 521.72 486.1 523.19 492.5 520.91C496.28 512.8 499.01 504.12 502.36 495.81C510.95 474.55 519.54 453.04 530.31 432.78C536.2 421.69 540.09 404.03 557.22 411.32C567.12 415.54 572.83 434.01 576.08 443.46C581.86 460.29 588.35 477.09 594.76 493.69C597.98 502.02 600.7 514.5 605.5 521.65C630.5 521.65 655.5 521.65 680.5 521.65C680.17 517.35 677.88 513.29 676.36 509.21C673.38 501.21 670.24 493.28 667.25 485.29C658.17 461.05 649.75 436.49 639.84 412.6C634.29 399.18 629.52 384.87 615.82 377.65C605.16 372.02 591.32 370.93 579.53 372.26C573.27 372.97 566.31 375.39 560.13 374.5C572.42 352.83 584.71 331.17 596.99 309.5C582.86 307.66 567.76 308.94 553.5 309.04C548.71 309.07 540.36 310.69 536.7 306.82C533.11 303.01 534.63 295.25 534.67 290.5C534.75 277.38 535.5 263.92 534.5 250.84Z" fill="#0698ac" fill-rule="evenodd" stroke="#0698ac" stroke-width="0.25" stroke-linejoin="round"/>
</svg>